<mxfile host="app.diagrams.net" modified="2023-09-28T02:28:03.864Z" agent="Mozilla/5.0 (X11; Ubuntu; Linux x86_64; rv:109.0) Gecko/20100101 Firefox/118.0" etag="gbCvSVTDW8e-Vnxn_0IF" version="21.8.2" type="github">
  <diagram name="Page-1" id="9mDjnk1xl4LSsJzSr6N0">
    <mxGraphModel dx="3704" dy="1126" grid="1" gridSize="10" guides="1" tooltips="1" connect="1" arrows="1" fold="1" page="1" pageScale="1" pageWidth="850" pageHeight="1100" math="0" shadow="0">
      <root>
        <mxCell id="0" />
        <mxCell id="1" parent="0" />
        <mxCell id="DiAU9s5X7gYXEooud-6u-108" value="" style="group" vertex="1" connectable="0" parent="1">
          <mxGeometry x="80" y="200" width="200" height="420" as="geometry" />
        </mxCell>
        <mxCell id="DiAU9s5X7gYXEooud-6u-1" value="&lt;div&gt;STM32F411CUE6&lt;/div&gt;&lt;div&gt;Black Pill&lt;br&gt;&lt;/div&gt;" style="rounded=0;whiteSpace=wrap;html=1;fillColor=#dae8fc;strokeColor=#6c8ebf;" vertex="1" parent="DiAU9s5X7gYXEooud-6u-108">
          <mxGeometry width="200" height="420" as="geometry" />
        </mxCell>
        <mxCell id="DiAU9s5X7gYXEooud-6u-2" value="PB12" style="rounded=0;whiteSpace=wrap;html=1;fillColor=#dae8fc;strokeColor=#6c8ebf;" vertex="1" parent="DiAU9s5X7gYXEooud-6u-108">
          <mxGeometry width="40" height="20" as="geometry" />
        </mxCell>
        <mxCell id="DiAU9s5X7gYXEooud-6u-4" value="PB13" style="rounded=0;whiteSpace=wrap;html=1;fillColor=#dae8fc;strokeColor=#6c8ebf;" vertex="1" parent="DiAU9s5X7gYXEooud-6u-108">
          <mxGeometry y="20" width="40" height="20" as="geometry" />
        </mxCell>
        <mxCell id="DiAU9s5X7gYXEooud-6u-5" value="PB14" style="rounded=0;whiteSpace=wrap;html=1;fillColor=#dae8fc;strokeColor=#6c8ebf;" vertex="1" parent="DiAU9s5X7gYXEooud-6u-108">
          <mxGeometry y="40" width="40" height="20" as="geometry" />
        </mxCell>
        <mxCell id="DiAU9s5X7gYXEooud-6u-6" value="PB15" style="rounded=0;whiteSpace=wrap;html=1;fillColor=#dae8fc;strokeColor=#6c8ebf;" vertex="1" parent="DiAU9s5X7gYXEooud-6u-108">
          <mxGeometry y="60" width="40" height="20" as="geometry" />
        </mxCell>
        <mxCell id="DiAU9s5X7gYXEooud-6u-7" value="PA8" style="rounded=0;whiteSpace=wrap;html=1;fillColor=#dae8fc;strokeColor=#6c8ebf;" vertex="1" parent="DiAU9s5X7gYXEooud-6u-108">
          <mxGeometry y="80" width="40" height="20" as="geometry" />
        </mxCell>
        <mxCell id="DiAU9s5X7gYXEooud-6u-8" value="PA9" style="rounded=0;whiteSpace=wrap;html=1;fillColor=#dae8fc;strokeColor=#6c8ebf;" vertex="1" parent="DiAU9s5X7gYXEooud-6u-108">
          <mxGeometry y="100" width="40" height="20" as="geometry" />
        </mxCell>
        <mxCell id="DiAU9s5X7gYXEooud-6u-9" value="PA10" style="rounded=0;whiteSpace=wrap;html=1;fillColor=#dae8fc;strokeColor=#6c8ebf;" vertex="1" parent="DiAU9s5X7gYXEooud-6u-108">
          <mxGeometry y="120" width="40" height="20" as="geometry" />
        </mxCell>
        <mxCell id="DiAU9s5X7gYXEooud-6u-10" value="PA11" style="rounded=0;whiteSpace=wrap;html=1;fillColor=#dae8fc;strokeColor=#6c8ebf;" vertex="1" parent="DiAU9s5X7gYXEooud-6u-108">
          <mxGeometry y="140" width="40" height="20" as="geometry" />
        </mxCell>
        <mxCell id="DiAU9s5X7gYXEooud-6u-11" value="PA12" style="rounded=0;whiteSpace=wrap;html=1;fillColor=#dae8fc;strokeColor=#6c8ebf;" vertex="1" parent="DiAU9s5X7gYXEooud-6u-108">
          <mxGeometry y="160" width="40" height="20" as="geometry" />
        </mxCell>
        <mxCell id="DiAU9s5X7gYXEooud-6u-12" value="PA15" style="rounded=0;whiteSpace=wrap;html=1;fillColor=#dae8fc;strokeColor=#6c8ebf;" vertex="1" parent="DiAU9s5X7gYXEooud-6u-108">
          <mxGeometry y="180" width="40" height="20" as="geometry" />
        </mxCell>
        <mxCell id="DiAU9s5X7gYXEooud-6u-13" value="PB3" style="rounded=0;whiteSpace=wrap;html=1;fillColor=#dae8fc;strokeColor=#6c8ebf;" vertex="1" parent="DiAU9s5X7gYXEooud-6u-108">
          <mxGeometry y="200" width="40" height="20" as="geometry" />
        </mxCell>
        <mxCell id="DiAU9s5X7gYXEooud-6u-14" value="PB4" style="rounded=0;whiteSpace=wrap;html=1;fillColor=#dae8fc;strokeColor=#6c8ebf;" vertex="1" parent="DiAU9s5X7gYXEooud-6u-108">
          <mxGeometry y="220" width="40" height="20" as="geometry" />
        </mxCell>
        <mxCell id="DiAU9s5X7gYXEooud-6u-15" value="PB5" style="rounded=0;whiteSpace=wrap;html=1;fillColor=#dae8fc;strokeColor=#6c8ebf;" vertex="1" parent="DiAU9s5X7gYXEooud-6u-108">
          <mxGeometry y="240" width="40" height="20" as="geometry" />
        </mxCell>
        <mxCell id="DiAU9s5X7gYXEooud-6u-16" value="PB6" style="rounded=0;whiteSpace=wrap;html=1;fillColor=#dae8fc;strokeColor=#6c8ebf;" vertex="1" parent="DiAU9s5X7gYXEooud-6u-108">
          <mxGeometry y="260" width="40" height="20" as="geometry" />
        </mxCell>
        <mxCell id="DiAU9s5X7gYXEooud-6u-17" value="PB7" style="rounded=0;whiteSpace=wrap;html=1;fillColor=#dae8fc;strokeColor=#6c8ebf;" vertex="1" parent="DiAU9s5X7gYXEooud-6u-108">
          <mxGeometry y="280" width="40" height="20" as="geometry" />
        </mxCell>
        <mxCell id="DiAU9s5X7gYXEooud-6u-18" value="PB8" style="rounded=0;whiteSpace=wrap;html=1;fillColor=#dae8fc;strokeColor=#6c8ebf;" vertex="1" parent="DiAU9s5X7gYXEooud-6u-108">
          <mxGeometry y="300" width="40" height="20" as="geometry" />
        </mxCell>
        <mxCell id="DiAU9s5X7gYXEooud-6u-19" value="PB9" style="rounded=0;whiteSpace=wrap;html=1;fillColor=#dae8fc;strokeColor=#6c8ebf;" vertex="1" parent="DiAU9s5X7gYXEooud-6u-108">
          <mxGeometry y="320" width="40" height="20" as="geometry" />
        </mxCell>
        <mxCell id="DiAU9s5X7gYXEooud-6u-20" value="5V" style="rounded=0;whiteSpace=wrap;html=1;fillColor=#dae8fc;strokeColor=#6c8ebf;" vertex="1" parent="DiAU9s5X7gYXEooud-6u-108">
          <mxGeometry y="340" width="40" height="20" as="geometry" />
        </mxCell>
        <mxCell id="DiAU9s5X7gYXEooud-6u-21" value="GND" style="rounded=0;whiteSpace=wrap;html=1;fillColor=#dae8fc;strokeColor=#6c8ebf;" vertex="1" parent="DiAU9s5X7gYXEooud-6u-108">
          <mxGeometry y="360" width="40" height="20" as="geometry" />
        </mxCell>
        <mxCell id="DiAU9s5X7gYXEooud-6u-22" value="3.3V" style="rounded=0;whiteSpace=wrap;html=1;fillColor=#dae8fc;strokeColor=#6c8ebf;" vertex="1" parent="DiAU9s5X7gYXEooud-6u-108">
          <mxGeometry y="380" width="40" height="20" as="geometry" />
        </mxCell>
        <mxCell id="DiAU9s5X7gYXEooud-6u-23" value="5V" style="rounded=0;whiteSpace=wrap;html=1;fillColor=#dae8fc;strokeColor=#6c8ebf;" vertex="1" parent="DiAU9s5X7gYXEooud-6u-108">
          <mxGeometry x="160" width="40" height="20" as="geometry" />
        </mxCell>
        <mxCell id="DiAU9s5X7gYXEooud-6u-24" value="GND" style="rounded=0;whiteSpace=wrap;html=1;fillColor=#dae8fc;strokeColor=#6c8ebf;" vertex="1" parent="DiAU9s5X7gYXEooud-6u-108">
          <mxGeometry x="160" y="20" width="40" height="20" as="geometry" />
        </mxCell>
        <mxCell id="DiAU9s5X7gYXEooud-6u-167" style="edgeStyle=orthogonalEdgeStyle;rounded=0;orthogonalLoop=1;jettySize=auto;html=1;exitX=1;exitY=0.5;exitDx=0;exitDy=0;" edge="1" parent="DiAU9s5X7gYXEooud-6u-108" source="DiAU9s5X7gYXEooud-6u-25">
          <mxGeometry relative="1" as="geometry">
            <mxPoint x="280" y="50" as="targetPoint" />
          </mxGeometry>
        </mxCell>
        <mxCell id="DiAU9s5X7gYXEooud-6u-168" value="3.3V Rail" style="edgeLabel;html=1;align=center;verticalAlign=middle;resizable=0;points=[];" vertex="1" connectable="0" parent="DiAU9s5X7gYXEooud-6u-167">
          <mxGeometry x="0.9576" relative="1" as="geometry">
            <mxPoint x="32" as="offset" />
          </mxGeometry>
        </mxCell>
        <mxCell id="DiAU9s5X7gYXEooud-6u-25" value="3.3V" style="rounded=0;whiteSpace=wrap;html=1;fillColor=#dae8fc;strokeColor=#6c8ebf;" vertex="1" parent="DiAU9s5X7gYXEooud-6u-108">
          <mxGeometry x="160" y="40" width="40" height="20" as="geometry" />
        </mxCell>
        <mxCell id="DiAU9s5X7gYXEooud-6u-26" value="PB10" style="rounded=0;whiteSpace=wrap;html=1;fillColor=#dae8fc;strokeColor=#6c8ebf;" vertex="1" parent="DiAU9s5X7gYXEooud-6u-108">
          <mxGeometry x="160" y="60" width="40" height="20" as="geometry" />
        </mxCell>
        <mxCell id="DiAU9s5X7gYXEooud-6u-27" value="PB2" style="rounded=0;whiteSpace=wrap;html=1;fillColor=#dae8fc;strokeColor=#6c8ebf;" vertex="1" parent="DiAU9s5X7gYXEooud-6u-108">
          <mxGeometry x="160" y="80" width="40" height="20" as="geometry" />
        </mxCell>
        <mxCell id="DiAU9s5X7gYXEooud-6u-28" value="PB1" style="rounded=0;whiteSpace=wrap;html=1;fillColor=#dae8fc;strokeColor=#6c8ebf;" vertex="1" parent="DiAU9s5X7gYXEooud-6u-108">
          <mxGeometry x="160" y="100" width="40" height="20" as="geometry" />
        </mxCell>
        <mxCell id="DiAU9s5X7gYXEooud-6u-29" value="PB0" style="rounded=0;whiteSpace=wrap;html=1;fillColor=#dae8fc;strokeColor=#6c8ebf;" vertex="1" parent="DiAU9s5X7gYXEooud-6u-108">
          <mxGeometry x="160" y="120" width="40" height="20" as="geometry" />
        </mxCell>
        <mxCell id="DiAU9s5X7gYXEooud-6u-30" value="PA7" style="rounded=0;whiteSpace=wrap;html=1;fillColor=#dae8fc;strokeColor=#6c8ebf;" vertex="1" parent="DiAU9s5X7gYXEooud-6u-108">
          <mxGeometry x="160" y="140" width="40" height="20" as="geometry" />
        </mxCell>
        <mxCell id="DiAU9s5X7gYXEooud-6u-31" value="PA6" style="rounded=0;whiteSpace=wrap;html=1;fillColor=#dae8fc;strokeColor=#6c8ebf;" vertex="1" parent="DiAU9s5X7gYXEooud-6u-108">
          <mxGeometry x="160" y="160" width="40" height="20" as="geometry" />
        </mxCell>
        <mxCell id="DiAU9s5X7gYXEooud-6u-32" value="PA5" style="rounded=0;whiteSpace=wrap;html=1;fillColor=#dae8fc;strokeColor=#6c8ebf;" vertex="1" parent="DiAU9s5X7gYXEooud-6u-108">
          <mxGeometry x="160" y="180" width="40" height="20" as="geometry" />
        </mxCell>
        <mxCell id="DiAU9s5X7gYXEooud-6u-33" value="PA4" style="rounded=0;whiteSpace=wrap;html=1;fillColor=#dae8fc;strokeColor=#6c8ebf;" vertex="1" parent="DiAU9s5X7gYXEooud-6u-108">
          <mxGeometry x="160" y="200" width="40" height="20" as="geometry" />
        </mxCell>
        <mxCell id="DiAU9s5X7gYXEooud-6u-34" value="PA3" style="rounded=0;whiteSpace=wrap;html=1;fillColor=#dae8fc;strokeColor=#6c8ebf;" vertex="1" parent="DiAU9s5X7gYXEooud-6u-108">
          <mxGeometry x="160" y="220" width="40" height="20" as="geometry" />
        </mxCell>
        <mxCell id="DiAU9s5X7gYXEooud-6u-35" value="PA2" style="rounded=0;whiteSpace=wrap;html=1;fillColor=#dae8fc;strokeColor=#6c8ebf;" vertex="1" parent="DiAU9s5X7gYXEooud-6u-108">
          <mxGeometry x="160" y="240" width="40" height="20" as="geometry" />
        </mxCell>
        <mxCell id="DiAU9s5X7gYXEooud-6u-36" value="PA1" style="rounded=0;whiteSpace=wrap;html=1;fillColor=#dae8fc;strokeColor=#6c8ebf;" vertex="1" parent="DiAU9s5X7gYXEooud-6u-108">
          <mxGeometry x="160" y="260" width="40" height="20" as="geometry" />
        </mxCell>
        <mxCell id="DiAU9s5X7gYXEooud-6u-37" value="PA0" style="rounded=0;whiteSpace=wrap;html=1;fillColor=#dae8fc;strokeColor=#6c8ebf;" vertex="1" parent="DiAU9s5X7gYXEooud-6u-108">
          <mxGeometry x="160" y="280" width="40" height="20" as="geometry" />
        </mxCell>
        <mxCell id="DiAU9s5X7gYXEooud-6u-38" value="NRST" style="rounded=0;whiteSpace=wrap;html=1;fillColor=#dae8fc;strokeColor=#6c8ebf;" vertex="1" parent="DiAU9s5X7gYXEooud-6u-108">
          <mxGeometry x="160" y="300" width="40" height="20" as="geometry" />
        </mxCell>
        <mxCell id="DiAU9s5X7gYXEooud-6u-39" value="PC15" style="rounded=0;whiteSpace=wrap;html=1;fillColor=#dae8fc;strokeColor=#6c8ebf;" vertex="1" parent="DiAU9s5X7gYXEooud-6u-108">
          <mxGeometry x="160" y="320" width="40" height="20" as="geometry" />
        </mxCell>
        <mxCell id="DiAU9s5X7gYXEooud-6u-40" value="PC14" style="rounded=0;whiteSpace=wrap;html=1;fillColor=#dae8fc;strokeColor=#6c8ebf;" vertex="1" parent="DiAU9s5X7gYXEooud-6u-108">
          <mxGeometry x="160" y="340" width="40" height="20" as="geometry" />
        </mxCell>
        <mxCell id="DiAU9s5X7gYXEooud-6u-41" value="PC13" style="rounded=0;whiteSpace=wrap;html=1;fillColor=#dae8fc;strokeColor=#6c8ebf;" vertex="1" parent="DiAU9s5X7gYXEooud-6u-108">
          <mxGeometry x="160" y="360" width="40" height="20" as="geometry" />
        </mxCell>
        <mxCell id="DiAU9s5X7gYXEooud-6u-42" value="VB" style="rounded=0;whiteSpace=wrap;html=1;fillColor=#dae8fc;strokeColor=#6c8ebf;" vertex="1" parent="DiAU9s5X7gYXEooud-6u-108">
          <mxGeometry x="160" y="380" width="40" height="20" as="geometry" />
        </mxCell>
        <mxCell id="DiAU9s5X7gYXEooud-6u-43" value="3.3V" style="rounded=0;whiteSpace=wrap;html=1;fillColor=#dae8fc;strokeColor=#6c8ebf;" vertex="1" parent="DiAU9s5X7gYXEooud-6u-108">
          <mxGeometry y="400" width="60" height="20" as="geometry" />
        </mxCell>
        <mxCell id="DiAU9s5X7gYXEooud-6u-44" value="SWDIO" style="rounded=0;whiteSpace=wrap;html=1;fontSize=10;fillColor=#dae8fc;strokeColor=#6c8ebf;" vertex="1" parent="DiAU9s5X7gYXEooud-6u-108">
          <mxGeometry x="60" y="400" width="40" height="20" as="geometry" />
        </mxCell>
        <mxCell id="DiAU9s5X7gYXEooud-6u-45" value="SWCLK" style="rounded=0;whiteSpace=wrap;html=1;fontSize=10;fillColor=#dae8fc;strokeColor=#6c8ebf;" vertex="1" parent="DiAU9s5X7gYXEooud-6u-108">
          <mxGeometry x="100" y="400" width="40" height="20" as="geometry" />
        </mxCell>
        <mxCell id="DiAU9s5X7gYXEooud-6u-46" value="GND" style="rounded=0;whiteSpace=wrap;html=1;fillColor=#dae8fc;strokeColor=#6c8ebf;" vertex="1" parent="DiAU9s5X7gYXEooud-6u-108">
          <mxGeometry x="140" y="400" width="60" height="20" as="geometry" />
        </mxCell>
        <mxCell id="DiAU9s5X7gYXEooud-6u-109" style="edgeStyle=orthogonalEdgeStyle;rounded=0;orthogonalLoop=1;jettySize=auto;html=1;exitX=1;exitY=0.5;exitDx=0;exitDy=0;entryX=0;entryY=0.5;entryDx=0;entryDy=0;endArrow=none;endFill=0;" edge="1" parent="1" source="DiAU9s5X7gYXEooud-6u-34" target="DiAU9s5X7gYXEooud-6u-101">
          <mxGeometry relative="1" as="geometry" />
        </mxCell>
        <mxCell id="DiAU9s5X7gYXEooud-6u-171" value="USART2_RX" style="edgeLabel;html=1;align=center;verticalAlign=middle;resizable=0;points=[];" vertex="1" connectable="0" parent="DiAU9s5X7gYXEooud-6u-109">
          <mxGeometry x="0.0432" y="-1" relative="1" as="geometry">
            <mxPoint x="-71" y="-1" as="offset" />
          </mxGeometry>
        </mxCell>
        <mxCell id="DiAU9s5X7gYXEooud-6u-110" value="" style="group" vertex="1" connectable="0" parent="1">
          <mxGeometry x="550" y="400" width="120" height="120" as="geometry" />
        </mxCell>
        <mxCell id="DiAU9s5X7gYXEooud-6u-97" value="" style="group;fillColor=#e1d5e7;strokeColor=#9673a6;fontSize=10;container=0;" vertex="1" connectable="0" parent="DiAU9s5X7gYXEooud-6u-110">
          <mxGeometry width="120" height="120" as="geometry" />
        </mxCell>
        <mxCell id="DiAU9s5X7gYXEooud-6u-99" value="&lt;font style=&quot;font-size: 11px;&quot;&gt;STATE&lt;/font&gt;" style="rounded=0;whiteSpace=wrap;html=1;fillColor=#e1d5e7;strokeColor=#9673a6;" vertex="1" parent="DiAU9s5X7gYXEooud-6u-110">
          <mxGeometry width="40" height="20" as="geometry" />
        </mxCell>
        <mxCell id="DiAU9s5X7gYXEooud-6u-100" value="RXD" style="rounded=0;whiteSpace=wrap;html=1;fillColor=#e1d5e7;strokeColor=#9673a6;" vertex="1" parent="DiAU9s5X7gYXEooud-6u-110">
          <mxGeometry y="40" width="40" height="20" as="geometry" />
        </mxCell>
        <mxCell id="DiAU9s5X7gYXEooud-6u-101" value="TXD" style="rounded=0;whiteSpace=wrap;html=1;fillColor=#e1d5e7;strokeColor=#9673a6;" vertex="1" parent="DiAU9s5X7gYXEooud-6u-110">
          <mxGeometry y="20" width="40" height="20" as="geometry" />
        </mxCell>
        <mxCell id="DiAU9s5X7gYXEooud-6u-102" value="GND" style="rounded=0;whiteSpace=wrap;html=1;fillColor=#e1d5e7;strokeColor=#9673a6;" vertex="1" parent="DiAU9s5X7gYXEooud-6u-110">
          <mxGeometry y="60" width="40" height="20" as="geometry" />
        </mxCell>
        <mxCell id="DiAU9s5X7gYXEooud-6u-162" style="edgeStyle=orthogonalEdgeStyle;rounded=0;orthogonalLoop=1;jettySize=auto;html=1;exitX=0;exitY=0.5;exitDx=0;exitDy=0;" edge="1" parent="DiAU9s5X7gYXEooud-6u-110" source="DiAU9s5X7gYXEooud-6u-103">
          <mxGeometry relative="1" as="geometry">
            <mxPoint x="-60" y="90.19047619047615" as="targetPoint" />
          </mxGeometry>
        </mxCell>
        <mxCell id="DiAU9s5X7gYXEooud-6u-163" value="5V Rail" style="edgeLabel;html=1;align=center;verticalAlign=middle;resizable=0;points=[];" vertex="1" connectable="0" parent="DiAU9s5X7gYXEooud-6u-162">
          <mxGeometry x="1" y="3" relative="1" as="geometry">
            <mxPoint x="-20" y="-3" as="offset" />
          </mxGeometry>
        </mxCell>
        <mxCell id="DiAU9s5X7gYXEooud-6u-103" value="VCC" style="rounded=0;whiteSpace=wrap;html=1;fillColor=#e1d5e7;strokeColor=#9673a6;" vertex="1" parent="DiAU9s5X7gYXEooud-6u-110">
          <mxGeometry y="80" width="40" height="20" as="geometry" />
        </mxCell>
        <mxCell id="DiAU9s5X7gYXEooud-6u-104" value="EN" style="rounded=0;whiteSpace=wrap;html=1;fillColor=#e1d5e7;strokeColor=#9673a6;" vertex="1" parent="DiAU9s5X7gYXEooud-6u-110">
          <mxGeometry y="100" width="40" height="20" as="geometry" />
        </mxCell>
        <mxCell id="DiAU9s5X7gYXEooud-6u-106" value="HC-05" style="rounded=0;whiteSpace=wrap;html=1;fillColor=#e1d5e7;strokeColor=#9673a6;" vertex="1" parent="DiAU9s5X7gYXEooud-6u-110">
          <mxGeometry x="40" width="80" height="120" as="geometry" />
        </mxCell>
        <mxCell id="DiAU9s5X7gYXEooud-6u-111" style="edgeStyle=orthogonalEdgeStyle;rounded=0;orthogonalLoop=1;jettySize=auto;html=1;exitX=1;exitY=0.5;exitDx=0;exitDy=0;entryX=0;entryY=0.5;entryDx=0;entryDy=0;endArrow=none;endFill=0;" edge="1" parent="1" source="DiAU9s5X7gYXEooud-6u-35" target="DiAU9s5X7gYXEooud-6u-100">
          <mxGeometry relative="1" as="geometry" />
        </mxCell>
        <mxCell id="DiAU9s5X7gYXEooud-6u-173" value="USART2_TX" style="edgeLabel;html=1;align=center;verticalAlign=middle;resizable=0;points=[];" vertex="1" connectable="0" parent="DiAU9s5X7gYXEooud-6u-111">
          <mxGeometry x="-0.0138" relative="1" as="geometry">
            <mxPoint x="-63" as="offset" />
          </mxGeometry>
        </mxCell>
        <mxCell id="DiAU9s5X7gYXEooud-6u-161" style="edgeStyle=orthogonalEdgeStyle;rounded=0;orthogonalLoop=1;jettySize=auto;html=1;exitX=0.5;exitY=0;exitDx=0;exitDy=0;endArrow=none;endFill=0;" edge="1" parent="1" source="DiAU9s5X7gYXEooud-6u-160" target="DiAU9s5X7gYXEooud-6u-102">
          <mxGeometry relative="1" as="geometry" />
        </mxCell>
        <mxCell id="DiAU9s5X7gYXEooud-6u-160" value="" style="shape=stencil(pZPZDoIwEEW/pq+mtOLyaFD/o8AojdiSUre/tzCgVmji8kIy9zJnbiZTwpO6EBUQRgvC14QxRt3HlRe/FHUFmUXtLIwUaQno1NboA1xkbjuCVAUYaRuXbwhdkYZBCU8yrZSDSK1qz3nxHUxI5XrpFWF0EuOYW1djVbkJR7BgUI1QJWz7NtIpoak8SUV22Bt9UvmwK+jttIER42HLssSNjOTpf6pEs6uB0dtHfYbnBiI6toBxdE8opQoT4k8Ifobp94C3CLN/I/iA+Q8Rpt8T/AgLD7D8IQL7nNBeYeBQ3KMNnVjbNrjRVsWH3gp3);whiteSpace=wrap;html=1;rotation=90;" vertex="1" parent="1">
          <mxGeometry x="470" y="440" width="20" height="60" as="geometry" />
        </mxCell>
        <mxCell id="DiAU9s5X7gYXEooud-6u-164" value="" style="shape=stencil(pZPZDoIwEEW/pq+mtOLyaFD/o8AojdiSUre/tzCgVmji8kIy9zJnbiZTwpO6EBUQRgvC14QxRt3HlRe/FHUFmUXtLIwUaQno1NboA1xkbjuCVAUYaRuXbwhdkYZBCU8yrZSDSK1qz3nxHUxI5XrpFWF0EuOYW1djVbkJR7BgUI1QJWz7NtIpoak8SUV22Bt9UvmwK+jttIER42HLssSNjOTpf6pEs6uB0dtHfYbnBiI6toBxdE8opQoT4k8Ifobp94C3CLN/I/iA+Q8Rpt8T/AgLD7D8IQL7nNBeYeBQ3KMNnVjbNrjRVsWH3gp3);whiteSpace=wrap;html=1;rotation=-90;" vertex="1" parent="1">
          <mxGeometry x="350" y="200" width="20" height="60" as="geometry" />
        </mxCell>
        <mxCell id="DiAU9s5X7gYXEooud-6u-166" style="edgeStyle=orthogonalEdgeStyle;rounded=0;orthogonalLoop=1;jettySize=auto;html=1;exitX=1;exitY=0.5;exitDx=0;exitDy=0;entryX=0.5;entryY=0;entryDx=0;entryDy=0;endArrow=none;endFill=0;" edge="1" parent="1" source="DiAU9s5X7gYXEooud-6u-24" target="DiAU9s5X7gYXEooud-6u-164">
          <mxGeometry relative="1" as="geometry" />
        </mxCell>
        <mxCell id="DiAU9s5X7gYXEooud-6u-174" value="&amp;nbsp;" style="text;whiteSpace=wrap;html=1;" vertex="1" parent="1">
          <mxGeometry x="380" y="200" width="40" height="40" as="geometry" />
        </mxCell>
        <mxCell id="DiAU9s5X7gYXEooud-6u-175" value="&amp;nbsp;" style="text;whiteSpace=wrap;html=1;" vertex="1" parent="1">
          <mxGeometry x="50" y="10" width="40" height="40" as="geometry" />
        </mxCell>
        <mxCell id="DiAU9s5X7gYXEooud-6u-183" value="" style="group" vertex="1" connectable="0" parent="1">
          <mxGeometry x="-420" y="420" width="140" height="160" as="geometry" />
        </mxCell>
        <mxCell id="DiAU9s5X7gYXEooud-6u-47" value="" style="rounded=0;whiteSpace=wrap;html=1;fillColor=#d5e8d4;strokeColor=#82b366;container=0;" vertex="1" parent="DiAU9s5X7gYXEooud-6u-183">
          <mxGeometry width="140" height="160" as="geometry" />
        </mxCell>
        <mxCell id="DiAU9s5X7gYXEooud-6u-243" style="edgeStyle=orthogonalEdgeStyle;rounded=0;orthogonalLoop=1;jettySize=auto;html=1;exitX=1;exitY=0.5;exitDx=0;exitDy=0;" edge="1" parent="DiAU9s5X7gYXEooud-6u-183" source="DiAU9s5X7gYXEooud-6u-48">
          <mxGeometry relative="1" as="geometry">
            <mxPoint x="210" y="10.14285714285711" as="targetPoint" />
          </mxGeometry>
        </mxCell>
        <mxCell id="DiAU9s5X7gYXEooud-6u-244" value="3.3V Rail" style="edgeLabel;html=1;align=center;verticalAlign=middle;resizable=0;points=[];" vertex="1" connectable="0" parent="DiAU9s5X7gYXEooud-6u-243">
          <mxGeometry x="0.8336" y="-1" relative="1" as="geometry">
            <mxPoint x="36" y="-1" as="offset" />
          </mxGeometry>
        </mxCell>
        <mxCell id="DiAU9s5X7gYXEooud-6u-48" value="VCC" style="rounded=0;whiteSpace=wrap;html=1;fillColor=#d5e8d4;strokeColor=#82b366;container=0;" vertex="1" parent="DiAU9s5X7gYXEooud-6u-183">
          <mxGeometry x="100" width="40" height="20" as="geometry" />
        </mxCell>
        <mxCell id="DiAU9s5X7gYXEooud-6u-49" value="GND" style="rounded=0;whiteSpace=wrap;html=1;fillColor=#d5e8d4;strokeColor=#82b366;container=0;" vertex="1" parent="DiAU9s5X7gYXEooud-6u-183">
          <mxGeometry x="100" y="20" width="40" height="20" as="geometry" />
        </mxCell>
        <mxCell id="DiAU9s5X7gYXEooud-6u-50" value="SDA" style="rounded=0;whiteSpace=wrap;html=1;fillColor=#d5e8d4;strokeColor=#82b366;container=0;" vertex="1" parent="DiAU9s5X7gYXEooud-6u-183">
          <mxGeometry x="100" y="60" width="40" height="20" as="geometry" />
        </mxCell>
        <mxCell id="DiAU9s5X7gYXEooud-6u-51" value="XDA" style="rounded=0;whiteSpace=wrap;html=1;fillColor=#d5e8d4;strokeColor=#82b366;container=0;" vertex="1" parent="DiAU9s5X7gYXEooud-6u-183">
          <mxGeometry x="100" y="80" width="40" height="20" as="geometry" />
        </mxCell>
        <mxCell id="DiAU9s5X7gYXEooud-6u-52" value="XCL" style="rounded=0;whiteSpace=wrap;html=1;fillColor=#d5e8d4;strokeColor=#82b366;container=0;" vertex="1" parent="DiAU9s5X7gYXEooud-6u-183">
          <mxGeometry x="100" y="100" width="40" height="20" as="geometry" />
        </mxCell>
        <mxCell id="DiAU9s5X7gYXEooud-6u-53" value="AD0" style="rounded=0;whiteSpace=wrap;html=1;fillColor=#d5e8d4;strokeColor=#82b366;container=0;" vertex="1" parent="DiAU9s5X7gYXEooud-6u-183">
          <mxGeometry x="100" y="120" width="40" height="20" as="geometry" />
        </mxCell>
        <mxCell id="DiAU9s5X7gYXEooud-6u-54" value="INT" style="rounded=0;whiteSpace=wrap;html=1;fillColor=#d5e8d4;strokeColor=#82b366;container=0;" vertex="1" parent="DiAU9s5X7gYXEooud-6u-183">
          <mxGeometry x="100" y="140" width="40" height="20" as="geometry" />
        </mxCell>
        <mxCell id="DiAU9s5X7gYXEooud-6u-94" value="MPU-6050" style="rounded=0;whiteSpace=wrap;html=1;fillColor=#d5e8d4;strokeColor=#82b366;container=0;" vertex="1" parent="DiAU9s5X7gYXEooud-6u-183">
          <mxGeometry width="100" height="160" as="geometry" />
        </mxCell>
        <mxCell id="DiAU9s5X7gYXEooud-6u-182" value="SCL" style="rounded=0;whiteSpace=wrap;html=1;fillColor=#d5e8d4;strokeColor=#82b366;container=0;" vertex="1" parent="DiAU9s5X7gYXEooud-6u-183">
          <mxGeometry x="100" y="40" width="40" height="20" as="geometry" />
        </mxCell>
        <mxCell id="DiAU9s5X7gYXEooud-6u-178" style="edgeStyle=orthogonalEdgeStyle;rounded=0;orthogonalLoop=1;jettySize=auto;html=1;exitX=0;exitY=0.5;exitDx=0;exitDy=0;endArrow=none;endFill=0;entryX=1;entryY=0.5;entryDx=0;entryDy=0;" edge="1" parent="1" source="DiAU9s5X7gYXEooud-6u-17" target="DiAU9s5X7gYXEooud-6u-50">
          <mxGeometry relative="1" as="geometry">
            <mxPoint x="-42.33999999999992" y="490.16999999999985" as="targetPoint" />
          </mxGeometry>
        </mxCell>
        <mxCell id="DiAU9s5X7gYXEooud-6u-181" value="I2C1_SDA" style="edgeLabel;html=1;align=center;verticalAlign=middle;resizable=0;points=[];" vertex="1" connectable="0" parent="DiAU9s5X7gYXEooud-6u-178">
          <mxGeometry x="0.3239" y="-1" relative="1" as="geometry">
            <mxPoint x="178" y="1" as="offset" />
          </mxGeometry>
        </mxCell>
        <mxCell id="DiAU9s5X7gYXEooud-6u-176" style="edgeStyle=orthogonalEdgeStyle;rounded=0;orthogonalLoop=1;jettySize=auto;html=1;exitX=0;exitY=0.5;exitDx=0;exitDy=0;endArrow=none;endFill=0;entryX=1;entryY=0.5;entryDx=0;entryDy=0;" edge="1" parent="1" source="DiAU9s5X7gYXEooud-6u-16" target="DiAU9s5X7gYXEooud-6u-182">
          <mxGeometry relative="1" as="geometry">
            <mxPoint x="-40" y="470" as="targetPoint" />
          </mxGeometry>
        </mxCell>
        <mxCell id="DiAU9s5X7gYXEooud-6u-177" value="I2C1_SCL" style="edgeLabel;html=1;align=center;verticalAlign=middle;resizable=0;points=[];" vertex="1" connectable="0" parent="DiAU9s5X7gYXEooud-6u-176">
          <mxGeometry x="0.332" relative="1" as="geometry">
            <mxPoint x="180" as="offset" />
          </mxGeometry>
        </mxCell>
        <mxCell id="DiAU9s5X7gYXEooud-6u-215" value="" style="shape=waypoint;sketch=0;size=6;pointerEvents=1;points=[];fillColor=none;resizable=0;rotatable=0;perimeter=centerPerimeter;snapToPoint=1;" vertex="1" parent="1">
          <mxGeometry x="-50" y="460" width="20" height="20" as="geometry" />
        </mxCell>
        <mxCell id="DiAU9s5X7gYXEooud-6u-228" style="edgeStyle=orthogonalEdgeStyle;rounded=0;orthogonalLoop=1;jettySize=auto;html=1;exitX=0;exitY=0.5;exitDx=0;exitDy=0;exitPerimeter=0;endArrow=none;endFill=0;" edge="1" parent="1" source="DiAU9s5X7gYXEooud-6u-226" target="DiAU9s5X7gYXEooud-6u-215">
          <mxGeometry relative="1" as="geometry" />
        </mxCell>
        <mxCell id="DiAU9s5X7gYXEooud-6u-232" style="edgeStyle=orthogonalEdgeStyle;rounded=0;orthogonalLoop=1;jettySize=auto;html=1;exitX=1;exitY=0.5;exitDx=0;exitDy=0;exitPerimeter=0;" edge="1" parent="1" source="DiAU9s5X7gYXEooud-6u-226">
          <mxGeometry relative="1" as="geometry">
            <mxPoint x="-40.14285714285711" y="310" as="targetPoint" />
          </mxGeometry>
        </mxCell>
        <mxCell id="DiAU9s5X7gYXEooud-6u-235" value="3.3V Rail" style="edgeLabel;html=1;align=center;verticalAlign=middle;resizable=0;points=[];" vertex="1" connectable="0" parent="DiAU9s5X7gYXEooud-6u-232">
          <mxGeometry x="0.8558" relative="1" as="geometry">
            <mxPoint y="-14" as="offset" />
          </mxGeometry>
        </mxCell>
        <mxCell id="DiAU9s5X7gYXEooud-6u-226" value="4.7k" style="pointerEvents=1;verticalLabelPosition=middle;shadow=0;dashed=0;align=left;html=1;verticalAlign=top;shape=mxgraph.electrical.resistors.resistor_2;labelPosition=center;spacingBottom=0;spacingLeft=19;direction=west;spacing=0;spacingTop=20;points=[[0,0.5,0,0,0],[0.5,0,0,0,-3],[0.5,1,0,0,2],[1,0.5,0,0,0]];fillColor=none;rotation=90;horizontal=0;" vertex="1" parent="1">
          <mxGeometry x="-70" y="390" width="60" height="10" as="geometry" />
        </mxCell>
        <mxCell id="DiAU9s5X7gYXEooud-6u-230" style="edgeStyle=orthogonalEdgeStyle;rounded=0;orthogonalLoop=1;jettySize=auto;html=1;exitX=0;exitY=0.5;exitDx=0;exitDy=0;exitPerimeter=0;endArrow=none;endFill=0;jumpStyle=arc;" edge="1" parent="1" source="DiAU9s5X7gYXEooud-6u-227" target="DiAU9s5X7gYXEooud-6u-229">
          <mxGeometry relative="1" as="geometry" />
        </mxCell>
        <mxCell id="DiAU9s5X7gYXEooud-6u-231" style="edgeStyle=orthogonalEdgeStyle;rounded=0;orthogonalLoop=1;jettySize=auto;html=1;exitX=1;exitY=0.5;exitDx=0;exitDy=0;exitPerimeter=0;" edge="1" parent="1" source="DiAU9s5X7gYXEooud-6u-227">
          <mxGeometry relative="1" as="geometry">
            <mxPoint x="-120.14285714285711" y="310" as="targetPoint" />
          </mxGeometry>
        </mxCell>
        <mxCell id="DiAU9s5X7gYXEooud-6u-247" value="3.3V Rail" style="edgeLabel;html=1;align=center;verticalAlign=middle;resizable=0;points=[];" vertex="1" connectable="0" parent="DiAU9s5X7gYXEooud-6u-231">
          <mxGeometry x="0.77" y="1" relative="1" as="geometry">
            <mxPoint x="1" y="-16" as="offset" />
          </mxGeometry>
        </mxCell>
        <mxCell id="DiAU9s5X7gYXEooud-6u-227" value="4.7k" style="pointerEvents=1;verticalLabelPosition=middle;shadow=0;dashed=0;align=left;html=1;verticalAlign=top;shape=mxgraph.electrical.resistors.resistor_2;labelPosition=center;spacingBottom=0;spacingLeft=19;direction=west;spacing=0;spacingTop=20;points=[[0,0.5,0,0,0],[0.5,0,0,0,-3],[0.5,1,0,0,2],[1,0.5,0,0,0]];fillColor=none;rotation=90;horizontal=0;" vertex="1" parent="1">
          <mxGeometry x="-150" y="390" width="60" height="10" as="geometry" />
        </mxCell>
        <mxCell id="DiAU9s5X7gYXEooud-6u-229" value="" style="shape=waypoint;sketch=0;size=6;pointerEvents=1;points=[];fillColor=none;resizable=0;rotatable=0;perimeter=centerPerimeter;snapToPoint=1;" vertex="1" parent="1">
          <mxGeometry x="-130" y="480" width="20" height="20" as="geometry" />
        </mxCell>
        <mxCell id="DiAU9s5X7gYXEooud-6u-236" value="&amp;nbsp;" style="text;whiteSpace=wrap;html=1;" vertex="1" parent="1">
          <mxGeometry x="-860" y="470" width="40" height="40" as="geometry" />
        </mxCell>
        <mxCell id="DiAU9s5X7gYXEooud-6u-237" value="&amp;nbsp;" style="text;whiteSpace=wrap;html=1;" vertex="1" parent="1">
          <mxGeometry x="-1320" y="520" width="40" height="40" as="geometry" />
        </mxCell>
        <mxCell id="DiAU9s5X7gYXEooud-6u-245" value="" style="shape=stencil(pZPZDoIwEEW/pq+mtOLyaFD/o8AojdiSUre/tzCgVmji8kIy9zJnbiZTwpO6EBUQRgvC14QxRt3HlRe/FHUFmUXtLIwUaQno1NboA1xkbjuCVAUYaRuXbwhdkYZBCU8yrZSDSK1qz3nxHUxI5XrpFWF0EuOYW1djVbkJR7BgUI1QJWz7NtIpoak8SUV22Bt9UvmwK+jttIER42HLssSNjOTpf6pEs6uB0dtHfYbnBiI6toBxdE8opQoT4k8Ifobp94C3CLN/I/iA+Q8Rpt8T/AgLD7D8IQL7nNBeYeBQ3KMNnVjbNrjRVsWH3gp3);whiteSpace=wrap;html=1;rotation=-90;" vertex="1" parent="1">
          <mxGeometry x="-220" y="420" width="20" height="60" as="geometry" />
        </mxCell>
        <mxCell id="DiAU9s5X7gYXEooud-6u-246" style="edgeStyle=orthogonalEdgeStyle;rounded=0;orthogonalLoop=1;jettySize=auto;html=1;exitX=1;exitY=0.5;exitDx=0;exitDy=0;entryX=0.5;entryY=0;entryDx=0;entryDy=0;endArrow=none;endFill=0;" edge="1" parent="1" source="DiAU9s5X7gYXEooud-6u-49" target="DiAU9s5X7gYXEooud-6u-245">
          <mxGeometry relative="1" as="geometry" />
        </mxCell>
        <mxCell id="DiAU9s5X7gYXEooud-6u-248" value="&amp;nbsp;" style="text;whiteSpace=wrap;html=1;" vertex="1" parent="1">
          <mxGeometry x="50" y="410" width="40" height="40" as="geometry" />
        </mxCell>
      </root>
    </mxGraphModel>
  </diagram>
</mxfile>
